<svg width="16" height="16" viewBox="0 0 16 16" fill="none" xmlns="http://www.w3.org/2000/svg">
<path fill-rule="evenodd" clip-rule="evenodd" d="M7.52864 1.52876C7.78899 1.26841 8.2111 1.26841 8.47144 1.52876L11.8048 4.86209C12.0651 5.12244 12.0651 5.54455 11.8048 5.8049C11.5444 6.06525 11.1223 6.06525 10.862 5.8049L8.66671 3.60964V10.0002C8.66671 10.3684 8.36823 10.6668 8.00004 10.6668C7.63185 10.6668 7.33337 10.3684 7.33337 10.0002V3.60964L5.13811 5.8049C4.87776 6.06525 4.45565 6.06525 4.1953 5.8049C3.93495 5.54455 3.93495 5.12244 4.1953 4.86209L7.52864 1.52876ZM2.00004 9.3335C2.36823 9.3335 2.66671 9.63197 2.66671 10.0002V12.6668C2.66671 12.8436 2.73695 13.0132 2.86197 13.1382C2.98699 13.2633 3.15656 13.3335 3.33337 13.3335H12.6667C12.8435 13.3335 13.0131 13.2633 13.1381 13.1382C13.2631 13.0132 13.3334 12.8436 13.3334 12.6668V10.0002C13.3334 9.63197 13.6319 9.3335 14 9.3335C14.3682 9.3335 14.6667 9.63197 14.6667 10.0002V12.6668C14.6667 13.1973 14.456 13.706 14.0809 14.081C13.7058 14.4561 13.1971 14.6668 12.6667 14.6668H3.33337C2.80294 14.6668 2.29423 14.4561 1.91916 14.081C1.54409 13.706 1.33337 13.1973 1.33337 12.6668V10.0002C1.33337 9.63197 1.63185 9.3335 2.00004 9.3335Z" fill="#75809E"/>
</svg>
