<svg width="28" height="28" viewBox="0 0 28 28" fill="none" xmlns="http://www.w3.org/2000/svg">
<path d="M23.3332 27.3333H4.6665C2.45737 27.3333 0.666504 25.5425 0.666504 23.3333V1.99999C0.666504 1.26362 1.26346 0.666656 1.99984 0.666656H20.6665C21.4029 0.666656 21.9998 1.26362 21.9998 1.99999V18H27.3332V23.3333C27.3332 25.5425 25.5424 27.3333 23.3332 27.3333ZM21.9998 20.6667V23.3333C21.9998 24.0697 22.5968 24.6667 23.3332 24.6667C24.0696 24.6667 24.6665 24.0697 24.6665 23.3333V20.6667H21.9998ZM5.99984 7.33332V9.99999H16.6665V7.33332H5.99984ZM5.99984 12.6667V15.3333H16.6665V12.6667H5.99984ZM5.99984 18V20.6667H12.6665V18H5.99984Z" fill="#75809E"/>
</svg>
