<svg width="134" height="40" viewBox="0 0 134 40" fill="none" xmlns="http://www.w3.org/2000/svg">
<g clip-path="url(#clip0_2601_557)">
<path d="M132.621 23.4838C132.208 23.6829 131.851 23.7949 131.538 23.7949C131.039 23.7949 130.74 23.553 130.74 22.8264V19.3948H132.918V18.0411H130.74V15.9476H128.902V18.0411H127.82L127.834 19.3948H128.902V23.1554C128.902 24.7231 129.899 25.4349 131.139 25.4349C131.814 25.429 132.475 25.2368 133.048 24.8794L132.621 23.4838ZM123.688 17.6568C122.449 17.6716 121.494 18.1414 120.953 19.1528V17.7283H119.101V25.3524H120.953V21.6026C120.953 20.3493 121.694 19.4243 122.947 19.4088C124.002 19.4088 124.643 20.0646 124.643 21.1327V25.3493H126.51V20.5913C126.509 18.7825 125.441 17.6568 123.688 17.6568ZM114.955 17.7283V25.3524H116.808V17.7283H114.955ZM109.342 19.2524C110.596 19.2524 111.479 20.1922 111.479 21.5598C111.479 22.9275 110.596 23.8681 109.342 23.8681C108.06 23.8681 107.177 22.9275 107.177 21.5598C107.177 20.1922 108.06 19.2524 109.342 19.2524ZM109.342 17.6716C106.935 17.6716 105.311 19.2236 105.311 21.5318C105.311 23.8541 106.935 25.4217 109.342 25.4217C111.721 25.4217 113.346 23.8548 113.346 21.5318C113.346 19.2228 111.721 17.6716 109.342 17.6716ZM100.453 20.7336H98.373V17.0445H100.453C101.878 17.0445 102.69 17.6428 102.69 18.8673C102.69 20.1214 101.878 20.7336 100.453 20.7336ZM100.553 15.3773H96.4639V25.3493H98.373V22.4125H100.551C103.059 22.4125 104.497 21.0899 104.497 18.8082C104.499 16.6166 103.06 15.3773 100.553 15.3773ZM93.629 23.4262C93.0735 23.4262 92.6604 23.8393 92.6604 24.4375C92.6604 25.0358 93.0735 25.4777 93.629 25.4777C94.1992 25.4777 94.6123 25.0366 94.6123 24.4375C94.6123 23.8385 94.1992 23.4238 93.629 23.4238V23.4262ZM91.3067 23.4838C90.8936 23.6829 90.5381 23.7949 90.2246 23.7949C89.7259 23.7949 89.4264 23.553 89.4264 22.8264V19.3948H91.6047V18.0411H89.4264V15.9476H87.5888V18.0411H86.5067L86.5207 19.3948H87.5888V23.1554C87.5888 24.7231 88.5862 25.4349 89.8255 25.4349C90.5009 25.429 91.1615 25.2368 91.7346 24.8794L91.3067 23.4838ZM83.3862 19.1956V17.7283H81.5347V25.3524H83.3862V21.6742C83.3862 20.2925 84.3696 19.352 85.9792 19.4515V17.6568C84.7967 17.6716 83.8989 18.1982 83.3862 19.1956ZM73.2727 21.6026L75.0394 17.4148L76.7774 21.6026H73.2727ZM78.3442 25.3493H80.3957L76.0788 15.3773H74.0989L69.7251 25.3493H71.7058L72.5888 23.241H77.4581L78.3442 25.3493ZM66.0523 17.6568C64.7127 17.6716 63.7184 18.241 63.2174 19.4803C62.8611 18.3266 61.9353 17.6568 60.5957 17.6568C59.3852 17.6716 58.4446 18.1236 57.9179 19.1349V17.7283H56.064V25.3524H57.9164V21.5886C57.9164 20.3493 58.643 19.4375 59.8535 19.3948C60.8796 19.3948 61.5059 20.0498 61.5059 21.1327V25.3493H63.373V21.5886C63.373 20.3493 64.0996 19.4375 65.2962 19.3948C66.3223 19.3948 66.9633 20.0498 66.9633 21.1327V25.3493H68.8305V20.5913C68.8274 18.7825 67.7724 17.6568 66.0492 17.6568H66.0523ZM53.4586 17.9991L54.2249 16.3443C53.1456 15.6613 51.8955 15.2965 50.6182 15.2917C48.3816 15.2917 46.884 16.4035 46.884 18.1414C46.884 21.6882 52.2411 20.5057 52.2411 22.586C52.2411 23.2861 51.6 23.6829 50.5296 23.6829C49.4591 23.6829 48.1077 23.1274 47.0824 22.2157L46.2842 23.8253C47.4536 24.845 48.9501 25.4112 50.5015 25.4209C52.6954 25.4209 54.319 24.338 54.319 22.4716C54.3338 18.893 48.9767 19.993 48.9767 17.9703C48.9767 17.3573 49.561 17.0297 50.4549 17.0297C51.2336 17.0297 52.3873 17.3557 53.4555 17.9991H53.4586Z" fill="#0E1F4D"/>
<path d="M17.2161 2.93752L1.81155 11.755L8.78681 23.6579L12.9917 9.79452V9.78675V9.77507V9.77119V9.76418V9.76029V9.7564V9.74862V9.73229V9.7284V9.72451V9.72062V9.71673V9.70895V9.70506V9.70117V9.69728V9.69339V9.6895V9.68561V9.68172V9.67783V9.67394V9.67005V9.66616V9.66227V9.65838L17.2161 2.93752ZM18.4818 33.3047L19.925 38.0931L35.8601 28.9582L35.4789 25.203L28.9844 28.2985L18.4818 33.3047ZM4.16724 29.5705L18.1839 37.617L16.8909 33.3288L8.94474 26.4936L4.16724 29.5705ZM1.93291 29.6063V14.9805L0.104687 11.8616C0.00241426 11.687 -0.0263545 11.479 0.0247044 11.2832C0.0757633 11.0874 0.202471 10.9199 0.376975 10.8176C6.62639 7.2848 12.8556 3.67347 19.091 0.104935C19.2134 0.0347852 19.3529 -9.42941e-05 19.4939 0.00416259C19.6349 0.00841947 19.772 0.0516463 19.89 0.129052L36.4607 9.69806C36.5899 9.76103 36.6988 9.85904 36.775 9.98091C36.8512 10.1028 36.8916 10.2436 36.8917 10.3873V24.0329L37.4277 29.3052C37.4422 29.4517 37.414 29.5993 37.3465 29.7302C37.279 29.861 37.1751 29.9696 37.0473 30.0427L19.8503 39.8995C19.725 39.9715 19.5819 40.0064 19.4376 40.0002C19.2932 39.994 19.1536 39.9469 19.035 39.8645L2.38413 30.2994C2.24984 30.239 2.13584 30.141 2.0558 30.0174C1.97577 29.8937 1.9331 29.7496 1.93291 29.6024V29.6063ZM3.46473 17.5898V28.2012L7.9855 25.2963L3.46473 17.5898ZM23.2539 19.6724C23.6849 19.8124 24.0693 20.0676 24.3657 20.4104C24.662 20.7533 24.8589 21.1706 24.9351 21.6173L35.3599 23.1553V11.2882L28.8109 12.3906L23.2508 13.3242L23.2539 19.6724ZM20.0113 21.8904C20.0404 21.3914 20.2192 20.9128 20.5246 20.5171C20.8299 20.1214 21.2476 19.827 21.7229 19.6724V13.2409L14.2443 10.9202L10.1327 24.4717L20.0113 21.8904ZM24.7118 23.1351C24.5167 23.5292 24.2203 23.8643 23.8531 24.1062C23.4859 24.3481 23.061 24.4881 22.6219 24.5119C22.1828 24.5356 21.7452 24.4422 21.3541 24.2414C20.9629 24.0405 20.6322 23.7392 20.3956 23.3685L10.6135 25.914L17.679 31.9915L33.5316 24.4359L29.7624 23.8804L24.7118 23.1351ZM19.7328 1.79702L14.9094 9.52846L22.5382 11.8958L33.9051 9.98279L19.7328 1.79702Z" fill="#0E1F4D"/>
</g>
<defs>
<clipPath id="clip0_2601_557">
<rect width="133.048" height="40" fill="white"/>
</clipPath>
</defs>
</svg>
