<svg width="32" height="32" viewBox="0 0 32 32" fill="none" xmlns="http://www.w3.org/2000/svg">
<path d="M26.6667 6.66667H5.33341V25.3333L17.7231 12.942C18.2438 12.4213 19.0879 12.4212 19.6087 12.9419L26.6667 20.0139V6.66667ZM2.66675 5.32453C2.66675 4.59301 3.27383 4 3.98915 4H28.011C28.7414 4 29.3334 4.59327 29.3334 5.32453V26.6755C29.3334 27.4069 28.7263 28 28.011 28H3.98915C3.25881 28 2.66675 27.4068 2.66675 26.6755V5.32453ZM10.6667 14.6667C9.19399 14.6667 8.00008 13.4728 8.00008 12C8.00008 10.5272 9.19399 9.33333 10.6667 9.33333C12.1395 9.33333 13.3334 10.5272 13.3334 12C13.3334 13.4728 12.1395 14.6667 10.6667 14.6667Z" fill="#75809E"/>
</svg>
