<svg width="36" height="36" viewBox="0 0 36 36" fill="none" xmlns="http://www.w3.org/2000/svg">
<rect width="36" height="36" rx="18" fill="#0E1F4D"/>
<path fill-rule="evenodd" clip-rule="evenodd" d="M13.4697 13.4697C13.7626 13.1768 14.2374 13.1768 14.5303 13.4697L18 16.9393L21.4697 13.4697C21.7626 13.1768 22.2374 13.1768 22.5303 13.4697C22.8232 13.7626 22.8232 14.2374 22.5303 14.5303L19.0607 18L22.5303 21.4697C22.8232 21.7626 22.8232 22.2374 22.5303 22.5303C22.2374 22.8232 21.7626 22.8232 21.4697 22.5303L18 19.0607L14.5303 22.5303C14.2374 22.8232 13.7626 22.8232 13.4697 22.5303C13.1768 22.2374 13.1768 21.7626 13.4697 21.4697L16.9393 18L13.4697 14.5303C13.1768 14.2374 13.1768 13.7626 13.4697 13.4697Z" fill="white"/>
</svg>
