<svg width="28" height="28" viewBox="0 0 28 28" fill="none" xmlns="http://www.w3.org/2000/svg">
<path fill-rule="evenodd" clip-rule="evenodd" d="M2.33325 21V23.3333H25.6666V21H24.4999V14.467C23.7887 14.8306 23.0006 15.0653 22.1666 15.1405V21H5.83325V12.8699C5.83325 8.33938 9.4896 4.66665 13.9999 4.66665C14.8221 4.66665 15.616 4.7887 16.3645 5.01576C16.8752 4.30323 17.5283 3.69962 18.2821 3.24649C16.9744 2.65963 15.5251 2.33331 13.9999 2.33331C8.20093 2.33331 3.49992 7.05071 3.49992 12.8699V21H2.33325ZM13.9999 27.4166C15.6107 27.4166 16.9166 26.1108 16.9166 24.5H11.0833C11.0833 26.1108 12.3891 27.4166 13.9999 27.4166Z" fill="#0E1F4D"/>
<rect x="17.5" y="5.83337" width="7" height="7" rx="3.5" fill="#FF5050"/>
</svg>
